<?xml version="1.0" encoding="UTF-8" standalone="no" ?>
<!DOCTYPE svg PUBLIC "-//W3C//DTD SVG 1.1//EN" "http://www.w3.org/Graphics/SVG/1.1/DTD/svg11.dtd">
<svg xmlns="http://www.w3.org/2000/svg" xmlns:xlink="http://www.w3.org/1999/xlink" version="1.1" width="1080" height="1080" viewBox="0 0 1080 1080" xml:space="preserve">
<desc>Created with Fabric.js 5.2.4</desc>
<defs>
</defs>
<g transform="matrix(1 0 0 1 540 540)" id="b5ef80f8-423d-4344-bb41-0b61225a12be"  >
<rect style="stroke: none; stroke-width: 1; stroke-dasharray: none; stroke-linecap: butt; stroke-dashoffset: 0; stroke-linejoin: miter; stroke-miterlimit: 4; fill: rgb(255,255,255); fill-rule: nonzero; opacity: 1; visibility: hidden;" vector-effect="non-scaling-stroke"  x="-540" y="-540" rx="0" ry="0" width="1080" height="1080" />
</g>
<g transform="matrix(Infinity NaN NaN Infinity 0 0)" id="cf5f1018-c793-459a-810c-b205e276afd8"  >
</g>
<g transform="matrix(0 1 -1 0 540 540)"  >
<g style="" vector-effect="non-scaling-stroke"   >
		<g transform="matrix(1.33 0 0 1.33 0 0.22)" clip-path="url(#CLIPPATH_3)"  >
<clipPath id="CLIPPATH_3" >
	<path transform="matrix(1 0 0 1 0.02 -0.24) translate(-225.31, -454)" id="79" d="M 75.628906 77 L 375 77 L 375 831 L 75.628906 831 Z M 75.628906 77" stroke-linecap="round" />
</clipPath>
<path style="stroke: none; stroke-width: 1; stroke-dasharray: none; stroke-linecap: butt; stroke-dashoffset: 0; stroke-linejoin: miter; stroke-miterlimit: 4; fill: rgb(255,255,255); fill-rule: nonzero; opacity: 1;" vector-effect="non-scaling-stroke"  transform=" translate(-225.3, -454.24)" d="M 75.628906 432.484375 C 77.285156 430.996094 76.5625 429.023438 76.605469 427.261719 C 76.984375 411.253906 76.90625 395.234375 77.765625 379.257812 C 78.820312 359.730469 78.894531 340.171875 79.765625 320.65625 C 80.746094 298.945312 82.039062 277.246094 82.972656 255.535156 C 83.542969 242.179688 83.289062 228.777344 84.65625 215.453125 C 86.328125 199.191406 86.628906 182.824219 88.554688 166.578125 C 89.214844 160.945312 88.929688 155.164062 88.660156 149.457031 C 88.402344 144.050781 89.621094 138.796875 89.742188 133.453125 C 89.773438 132.019531 90.117188 130.742188 91.699219 130.320312 C 93.277344 129.914062 94.210938 130.996094 95.050781 132.035156 C 97.683594 135.289062 97.203125 139.445312 97.445312 143.101562 C 98.105469 153.039062 99.988281 162.84375 100.273438 172.839844 C 100.484375 180.097656 102.035156 187.324219 103.101562 195.441406 C 105.628906 186 104.5625 177.132812 105.75 168.472656 C 107.210938 157.917969 107.539062 147.230469 109.464844 136.703125 C 110.1875 132.773438 110.339844 128.753906 110.957031 124.808594 C 111.257812 122.867188 111.675781 120.414062 114.113281 120.246094 C 116.535156 120.082031 116.792969 122.566406 117.046875 124.25 C 117.816406 129.523438 118.808594 134.820312 118.824219 140.121094 C 118.855469 151.65625 119.273438 163.128906 121.472656 175.625 C 124.632812 155.644531 128.347656 136.871094 130.0625 117.792969 C 130.152344 116.8125 130.621094 115.863281 130.875 114.902344 C 131.328125 113.199219 132.0625 111.4375 133.945312 111.363281 C 136.050781 111.273438 136.53125 113.425781 136.847656 114.945312 C 137.75 119.34375 138.847656 123.800781 138.96875 128.257812 C 139.285156 141.3125 139 154.382812 139.945312 167.449219 C 140.339844 172.765625 140.789062 178.066406 141.902344 183.472656 C 143.980469 171.15625 145.90625 158.824219 148.191406 146.550781 C 151.773438 127.382812 155.550781 108.261719 159.386719 89.152344 C 159.820312 87.015625 160.273438 84.109375 163.160156 83.855469 C 166.304688 83.582031 167.210938 86.398438 168.125 88.71875 C 169.4375 92.058594 169.644531 95.824219 171.933594 99.664062 C 172.789062 93.625 173.558594 88.417969 174.265625 83.207031 C 174.445312 81.835938 174.625 80.449219 176.128906 79.9375 C 177.9375 79.320312 178.988281 80.675781 179.921875 81.804688 C 181.199219 83.34375 182.285156 85.042969 183.398438 86.699219 C 183.863281 87.390625 184.300781 88.402344 185.203125 87.980469 C 185.789062 87.691406 186.179688 86.683594 186.332031 85.933594 C 186.527344 84.96875 186.332031 83.914062 186.453125 82.921875 C 187.023438 77.785156 189.566406 76.429688 193.765625 79.335938 C 196.816406 81.445312 199.148438 81.820312 202.761719 79.820312 C 207.726562 77.078125 213.847656 77.875 219.039062 78.992188 C 231.46875 81.671875 243.910156 81.851562 256.457031 81.671875 C 266.265625 81.535156 275.894531 79.546875 285.71875 79.171875 C 297.273438 78.734375 308.664062 79.652344 320.066406 81.054688 C 323.859375 81.519531 327.636719 82.167969 331.425781 82.664062 C 337.609375 83.460938 339.355469 85.164062 340.632812 91.230469 C 341.523438 95.476562 342.574219 99.738281 346.1875 103.113281 C 347.238281 98.972656 350.535156 99.5 353.378906 99.90625 C 357.167969 100.445312 358.777344 103.789062 359.710938 106.859375 C 362.027344 114.511719 363.832031 122.324219 365.878906 130.050781 C 366.585938 132.714844 366.886719 135.167969 370.996094 135.347656 C 374.863281 135.515625 374.441406 139.671875 374.726562 142.546875 C 375.613281 151.265625 373.792969 159.90625 373.71875 168.625 C 373.613281 181.632812 373.75 194.703125 372.558594 207.621094 C 371.402344 220.210938 372.441406 232.769531 371.6875 245.296875 C 370.753906 260.863281 371.507812 276.492188 370.5 292.019531 C 369.476562 307.796875 370.273438 323.53125 369.730469 339.265625 C 369.101562 357.667969 368.453125 376.066406 367.683594 394.449219 C 367.128906 407.867188 366.40625 421.265625 365.699219 434.667969 C 363.53125 476.195312 365.113281 517.753906 364.84375 559.296875 C 364.796875 565.769531 365.984375 572.289062 365.699219 578.824219 C 365.277344 588.339844 364.738281 597.886719 361.410156 606.890625 C 360.222656 610.128906 361.699219 612.808594 361.742188 615.746094 C 362.074219 636.371094 360.597656 656.96875 360.34375 677.597656 C 360.222656 686.933594 359.5625 696.359375 359.773438 705.710938 C 360.058594 718.480469 358.175781 731.140625 358.660156 743.894531 C 358.765625 746.558594 358.71875 749.195312 359.273438 751.875 C 359.710938 754.027344 359.289062 757.160156 356.613281 757.671875 C 353.527344 758.257812 353.183594 755.234375 352.640625 752.972656 C 351.179688 746.816406 349.84375 740.613281 348.246094 734.484375 C 347.449219 731.441406 347.433594 726.292969 345.148438 725.945312 C 341.265625 725.375 337.113281 724.078125 333.007812 725.105469 C 331.878906 725.390625 330.71875 725.765625 329.574219 725.734375 C 327.109375 725.644531 326.476562 726.851562 326.386719 729.109375 C 325.964844 739.949219 324.566406 750.6875 322.609375 761.375 C 321.933594 765.066406 322.429688 768.964844 322.382812 772.773438 C 322.355469 775.859375 321.480469 778.660156 318.066406 779.144531 C 314.410156 779.65625 313.132812 776.6875 312.46875 773.859375 C 311.929688 771.507812 311.011719 769.476562 309.128906 766.585938 C 307.804688 772.535156 304.871094 776.976562 304.195312 782.289062 C 303.910156 784.488281 303.308594 786.914062 300.660156 787.140625 C 297.996094 787.378906 296.175781 786.085938 294.957031 783.300781 C 291.753906 776.042969 290.984375 768.136719 288.546875 760.699219 C 284.953125 749.753906 280.183594 739.195312 277.789062 727.179688 C 275.5625 730.644531 274.992188 733.925781 275.066406 737.332031 C 275.398438 752.449219 273.578125 767.277344 270.417969 782.066406 C 269.214844 787.710938 269.742188 793.703125 269.109375 799.53125 C 268.417969 805.945312 263.0625 810.328125 256.726562 808.925781 C 250.695312 807.585938 248.933594 809.046875 248.875 815.492188 C 248.8125 821.605469 247.292969 827.054688 241.816406 830.652344 C 240.808594 830.652344 239.800781 830.652344 238.792969 830.652344 C 236.914062 829.042969 235.257812 826.890625 233.089844 825.941406 C 230.203125 824.675781 227.285156 821.726562 223.839844 823.636719 C 216.902344 827.507812 209.710938 827.144531 202.382812 825.550781 C 199.253906 824.871094 196.292969 824.675781 193.027344 825.097656 C 185.550781 826.0625 182.992188 823.757812 181.320312 815.957031 C 180.765625 813.339844 179.996094 812.390625 176.941406 813.984375 C 171.195312 816.980469 168.636719 815.566406 166.367188 809.394531 C 162.90625 799.996094 160.121094 790.375 155.578125 781.355469 C 153.984375 778.195312 152.089844 777.082031 149.066406 776.117188 C 139.675781 773.152344 129.914062 771.3125 120.960938 767.066406 C 117.46875 765.410156 114.234375 764.808594 110.351562 765.710938 C 102.289062 767.578125 96.992188 763.964844 95.851562 756.300781 C 94.164062 744.992188 91.5625 733.835938 91.035156 722.332031 C 90.464844 709.730469 88.460938 697.21875 87.183594 684.675781 C 85.664062 669.769531 84.355469 654.816406 82.957031 639.894531 C 81.179688 621.132812 79.855469 602.285156 78.847656 583.460938 C 77.585938 559.597656 76.109375 535.699219 76.621094 511.761719 C 76.652344 510.164062 77.195312 508.355469 75.644531 507.046875 C 75.628906 482.21875 75.628906 457.34375 75.628906 432.484375 Z M 75.628906 432.484375" stroke-linecap="round" />
</g>
		<g transform="matrix(1.33 0 0 1.33 -27.97 -72.26)" clip-path="url(#CLIPPATH_4)"  >
<clipPath id="CLIPPATH_4" >
	<path transform="matrix(1 0 0 1 -0.18 0.12) translate(-204.14, -400)" id="45" d="M 75.625 77 L 332.664062 77 L 332.664062 723 L 75.625 723 Z M 75.625 77" stroke-linecap="round" />
</clipPath>
<path style="stroke: none; stroke-width: 1; stroke-dasharray: none; stroke-linecap: butt; stroke-dashoffset: 0; stroke-linejoin: miter; stroke-miterlimit: 4; fill: rgb(255,255,255); fill-rule: nonzero; opacity: 1;" vector-effect="non-scaling-stroke"  transform=" translate(-204.32, -399.88)" d="M 332.664062 381.242188 C 331.246094 379.96875 331.867188 378.277344 331.828125 376.769531 C 331.503906 363.0625 331.570312 349.339844 330.832031 335.65625 C 329.929688 318.929688 329.867188 302.179688 329.117188 285.46875 C 328.277344 266.871094 327.167969 248.289062 326.371094 229.691406 C 325.878906 218.253906 326.097656 206.777344 324.925781 195.363281 C 323.492188 181.4375 323.234375 167.417969 321.582031 153.503906 C 321.015625 148.683594 321.261719 143.730469 321.492188 138.84375 C 321.710938 134.214844 320.667969 129.710938 320.5625 125.132812 C 320.539062 123.910156 320.242188 122.8125 318.886719 122.453125 C 317.53125 122.105469 316.734375 123.03125 316.011719 123.921875 C 313.753906 126.707031 314.164062 130.265625 313.957031 133.402344 C 313.390625 141.910156 311.777344 150.308594 311.535156 158.871094 C 311.351562 165.085938 310.023438 171.273438 309.109375 178.226562 C 306.941406 170.140625 307.855469 162.546875 306.835938 155.128906 C 305.585938 146.089844 305.300781 136.933594 303.652344 127.917969 C 303.03125 124.554688 302.902344 121.109375 302.375 117.730469 C 302.117188 116.070312 301.753906 113.964844 299.664062 113.824219 C 297.585938 113.683594 297.367188 115.8125 297.148438 117.253906 C 296.492188 121.769531 295.640625 126.308594 295.625 130.847656 C 295.601562 140.726562 295.238281 150.550781 293.355469 161.253906 C 290.644531 144.144531 287.460938 128.0625 285.988281 111.722656 C 285.910156 110.882812 285.511719 110.070312 285.292969 109.246094 C 284.90625 107.789062 284.273438 106.28125 282.660156 106.214844 C 280.855469 106.140625 280.441406 107.984375 280.171875 109.285156 C 279.398438 113.050781 278.453125 116.867188 278.351562 120.683594 C 278.082031 131.867188 278.324219 143.058594 277.511719 154.253906 C 277.175781 158.804688 276.789062 163.34375 275.835938 167.972656 C 274.054688 157.425781 272.402344 146.863281 270.441406 136.355469 C 267.371094 119.9375 264.132812 103.558594 260.84375 87.195312 C 260.46875 85.363281 260.082031 82.875 257.605469 82.65625 C 254.910156 82.421875 254.136719 84.835938 253.347656 86.820312 C 252.226562 89.683594 252.046875 92.90625 250.085938 96.195312 C 249.351562 91.023438 248.691406 86.5625 248.085938 82.101562 C 247.929688 80.929688 247.777344 79.742188 246.484375 79.304688 C 244.9375 78.773438 244.035156 79.933594 243.234375 80.902344 C 242.136719 82.21875 241.207031 83.675781 240.253906 85.09375 C 239.855469 85.6875 239.480469 86.550781 238.707031 86.1875 C 238.203125 85.945312 237.867188 85.082031 237.738281 84.433594 C 237.570312 83.609375 237.738281 82.707031 237.636719 81.855469 C 237.144531 77.457031 234.964844 76.296875 231.367188 78.785156 C 228.746094 80.59375 226.746094 80.914062 223.652344 79.199219 C 219.394531 76.851562 214.140625 77.535156 209.691406 78.492188 C 199.035156 80.785156 188.367188 80.941406 177.605469 80.785156 C 169.195312 80.667969 160.9375 78.96875 152.511719 78.644531 C 142.605469 78.269531 132.839844 79.058594 123.058594 80.257812 C 119.808594 80.65625 116.570312 81.210938 113.320312 81.636719 C 108.015625 82.320312 106.519531 83.777344 105.421875 88.976562 C 104.664062 92.613281 103.757812 96.261719 100.664062 99.148438 C 99.761719 95.601562 96.933594 96.054688 94.496094 96.402344 C 91.246094 96.867188 89.863281 99.730469 89.066406 102.359375 C 87.078125 108.910156 85.53125 115.605469 83.777344 122.21875 C 83.167969 124.503906 82.910156 126.605469 79.390625 126.757812 C 76.074219 126.902344 76.433594 130.460938 76.191406 132.921875 C 75.429688 140.390625 76.988281 147.792969 77.054688 155.257812 C 77.144531 166.402344 77.027344 177.59375 78.046875 188.660156 C 79.039062 199.441406 78.152344 210.195312 78.796875 220.925781 C 79.59375 234.257812 78.949219 247.644531 79.816406 260.941406 C 80.691406 274.453125 80.007812 287.929688 80.472656 301.40625 C 81.015625 317.164062 81.570312 332.921875 82.226562 348.667969 C 82.703125 360.160156 83.324219 371.636719 83.929688 383.113281 C 85.789062 418.679688 84.433594 454.273438 84.664062 489.851562 C 84.703125 495.398438 83.683594 500.980469 83.929688 506.578125 C 84.292969 514.726562 84.757812 522.902344 87.605469 530.617188 C 88.625 533.386719 87.363281 535.683594 87.324219 538.199219 C 87.039062 555.867188 88.304688 573.507812 88.523438 591.171875 C 88.625 599.167969 89.195312 607.242188 89.011719 615.25 C 88.769531 626.1875 90.382812 637.03125 89.96875 647.953125 C 89.878906 650.238281 89.917969 652.492188 89.4375 654.789062 C 89.066406 656.632812 89.425781 659.316406 91.722656 659.753906 C 94.367188 660.257812 94.664062 657.664062 95.128906 655.730469 C 96.378906 650.457031 97.527344 645.140625 98.894531 639.894531 C 99.578125 637.289062 99.59375 632.878906 101.554688 632.582031 C 104.882812 632.09375 108.441406 630.984375 111.964844 631.859375 C 112.933594 632.105469 113.925781 632.425781 114.90625 632.402344 C 117.023438 632.324219 117.5625 633.355469 117.640625 635.289062 C 118.003906 644.574219 119.203125 653.769531 120.878906 662.925781 C 121.460938 666.085938 121.035156 669.425781 121.074219 672.6875 C 121.097656 675.332031 121.847656 677.730469 124.777344 678.144531 C 127.910156 678.582031 129.007812 676.039062 129.574219 673.617188 C 130.039062 671.605469 130.828125 669.863281 132.4375 667.386719 C 133.574219 672.480469 136.089844 676.285156 136.671875 680.839844 C 136.914062 682.722656 137.433594 684.796875 139.703125 684.992188 C 141.984375 685.195312 143.546875 684.085938 144.59375 681.703125 C 147.339844 675.484375 147.996094 668.714844 150.085938 662.34375 C 153.171875 652.96875 157.261719 643.929688 159.3125 633.640625 C 161.222656 636.605469 161.710938 639.417969 161.648438 642.332031 C 161.363281 655.277344 162.925781 667.980469 165.632812 680.644531 C 166.664062 685.480469 166.214844 690.613281 166.757812 695.605469 C 167.347656 701.097656 171.941406 704.851562 177.375 703.652344 C 182.546875 702.503906 184.054688 703.753906 184.109375 709.273438 C 184.160156 714.507812 185.460938 719.175781 190.160156 722.257812 C 191.023438 722.257812 191.886719 722.257812 192.753906 722.257812 C 194.363281 720.878906 195.785156 719.035156 197.640625 718.222656 C 200.117188 717.140625 202.621094 714.613281 205.574219 716.25 C 211.523438 719.5625 217.691406 719.253906 223.972656 717.886719 C 226.65625 717.308594 229.199219 717.140625 231.996094 717.5 C 238.410156 718.324219 240.601562 716.351562 242.035156 709.671875 C 242.511719 707.429688 243.171875 706.617188 245.789062 707.984375 C 250.71875 710.550781 252.910156 709.335938 254.859375 704.050781 C 257.824219 696.003906 260.210938 687.761719 264.109375 680.039062 C 265.476562 677.332031 267.101562 676.375 269.695312 675.550781 C 277.746094 673.011719 286.117188 671.4375 293.792969 667.800781 C 296.789062 666.382812 299.5625 665.867188 302.890625 666.640625 C 309.804688 668.238281 314.347656 665.144531 315.328125 658.578125 C 316.769531 648.894531 319.003906 639.339844 319.453125 629.488281 C 319.945312 618.691406 321.660156 607.976562 322.757812 597.234375 C 324.058594 584.46875 325.183594 571.664062 326.382812 558.882812 C 327.90625 542.816406 329.039062 526.667969 329.90625 510.550781 C 330.988281 490.109375 332.253906 469.644531 331.8125 449.140625 C 331.789062 447.773438 331.324219 446.226562 332.652344 445.105469 C 332.664062 423.839844 332.664062 402.535156 332.664062 381.242188 Z M 332.664062 381.242188" stroke-linecap="round" />
</g>
</g>
</g>
</svg>